<svg width="1564.069970703125px" height="173.6px" xmlns="http://www.w3.org/2000/svg" viewBox="-532.0349853515625 -11.799999999999997 1564.069970703125 173.6" style="background: rgba(143, 76, 76, 0);" preserveAspectRatio="xMidYMid"><defs><linearGradient id="editing-shiny-gradient" x1="0.9829629131445341" x2="0.0170370868554659" y1="0.3705904774487395" y2="0.6294095225512605" gradientUnits="objectBoundingBox"><stop offset="0.0" stop-color="#fab20c"></stop><stop offset="0.5" stop-color="#ff0968"></stop><stop offset="1.0" stop-color="#5a1a80"></stop></linearGradient><linearGradient id="editing-shiny-gradient2" x1="0" x2="0" y1="0" y2="1"><stop offset="0.2" stop-color="#fff" stop-opacity="0.8"></stop><stop offset="0.8" stop-color="#fff" stop-opacity="0"></stop></linearGradient><filter id="editing-shiny2" x="-100%" y="-100%" width="300%" height="300%"><feMorphology operator="erode" radius="2"></feMorphology></filter><filter id="editing-shiny" x="-100%" y="-100%" width="300%" height="300%"><feFlood flood-color="#fff" result="flood"></feFlood><feConvolveMatrix in="SourceGraphic" result="conv" order="8,8" divisor="1" kernelMatrix="0 0 0 0 0 0 0 0 0 0 0 1 1 0 0 0 0 0 0 1 1 0 0 0 0 0 1 0 0 1 0 0 0 0 1 0 0 1 0 0 0 1 0 0 0 0 1 0 0 1 1 0 0 1 1 0 0 0 0 1 1 0 0 0 "></feConvolveMatrix><feOffset dx="0" dy="4" in="conv" result="offset"></feOffset><feComposite operator="in" in="flood" in2="offset" result="comp"></feComposite><feGaussianBlur in="offset" stdDeviation="3" result="shadow"></feGaussianBlur><feColorMatrix in="shadow" type="matrix" values="0.7 0 0 0 0  0 0.7 0 0 0  0 0 0.7 0 0  0 0 0 0.3 0" result="dark-shadow"></feColorMatrix><feOffset dx="0" dy="4" in="dark-shadow" result="offset-shadow"></feOffset><feOffset dx="0" dy="2" in="conv" result="offset-2"></feOffset><feComposite operator="out" in="offset" in2="offset-2" result="edge-diff"></feComposite><feGaussianBlur in="edge-diff" stdDeviation="1" result="edge-blur"></feGaussianBlur><feColorMatrix in="edge-blur" result="edge-shadow" type="matrix" values="0 0 0 0 0  0 0 0 0 0  0 0 0 0 0  0 0 0 0.5 0"></feColorMatrix><feComposite operator="in" in="edge-shadow" in2="offset" result="edge-shadow-in"></feComposite><feOffset dx="0" dy="1" in="edge-shadow-in" result="edge-shadow-final"></feOffset><feMerge result="out"><feMergeNode in="offset-shadow"></feMergeNode><feMergeNode in="comp"></feMergeNode><feMergeNode in="edge-shadow-final"></feMergeNode><feMergeNode in="SourceGraphic"></feMergeNode></feMerge></filter></defs><g filter="url(#editing-shiny)"><g transform="translate(-175.05503660440445, 109)"><path d="M37.83-7.28L37.83-7.28L37.83-7.28Q37.83-14.07 40.55-27.64L40.55-27.64L26.19-27.64L20.86 0L0.58 0L12.90-64.02L33.37-64.02L27.74-35.41L42.10-35.41L47.43-64.02L67.90-64.02L67.90-64.02Q66.54-56.84 64.80-48.79L64.80-48.79L61.50-32.98L61.50-32.98Q57.81-14.55 57.81-6.50L57.81-6.50L57.81-6.50Q57.81-3.20 58.88-1.36L58.88-1.36L58.88-1.36Q54.03 1.94 48.35 1.94L48.35 1.94L48.35 1.94Q42.68 1.94 40.26-0.78L40.26-0.78L40.26-0.78Q37.83-3.49 37.83-7.28ZM112.81 1.94L112.81 1.94L112.81 1.94Q100.40 1.94 99.23-15.71L99.23-15.71L82.55-15.71L82.55-15.71Q80.61-11.25 79.25-7.37L79.25-7.37L76.73 0L63.15 0L93.70-64.02L114.56-64.02L118.63-16.88L118.63-16.88Q119.60-6.69 123.48-3.69L123.48-3.69L123.48-3.69Q120.67 1.94 112.81 1.94ZM90.89-35.11L85.55-22.80L98.94-22.80L97.78-47.72L97.78-50.34L90.89-35.11ZM167.03-64.70L167.03-64.70L167.03-64.70Q190.80-64.70 190.80-47.92L190.80-47.92L190.80-47.92Q190.80-38.70 184.88-33.17L184.88-33.17L184.88-33.17Q179.06-27.64 168.88-27.64L168.88-27.64L168.88-27.64Q164.12-27.64 160.44-30.36L160.44-30.36L160.44-30.36Q158.69-31.53 157.53-33.08L157.53-33.08L157.53-33.08Q164.61-33.08 168.34-37.39L168.34-37.39L168.34-37.39Q172.08-41.71 172.08-50.15L172.08-50.15L172.08-50.15Q172.08-58.59 163.74-58.59L163.74-58.59L161.41-58.59L161.41-58.59Q160.83-58.59 160.34-58.49L160.34-58.49L149.19 0L128.14 0L140.07-63.54L140.07-63.54Q150.45-64.50 156.46-64.60L156.46-64.60L156.46-64.60Q162.48-64.70 167.03-64.70ZM229.21-64.70L229.21-64.70L229.21-64.70Q252.98-64.70 252.98-47.92L252.98-47.92L252.98-47.92Q252.98-38.70 247.06-33.17L247.06-33.17L247.06-33.17Q241.24-27.64 231.05-27.64L231.05-27.64L231.05-27.64Q226.30-27.64 222.62-30.36L222.62-30.36L222.62-30.36Q220.87-31.53 219.71-33.08L219.71-33.08L219.71-33.08Q226.79-33.08 230.52-37.39L230.52-37.39L230.52-37.39Q234.26-41.71 234.26-50.15L234.26-50.15L234.26-50.15Q234.26-58.59 225.91-58.59L225.91-58.59L223.59-58.59L223.59-58.59Q223.00-58.59 222.52-58.49L222.52-58.49L211.36 0L190.31 0L202.25-63.54L202.25-63.54Q212.62-64.50 218.64-64.60L218.64-64.60L218.64-64.60Q224.65-64.70 229.21-64.70ZM262.68 0L268.30-28.52L268.30-28.52Q265.49-54.80 255.59-60.43L255.59-60.43L255.59-60.43Q257.63-62.95 260.93-64.36L260.93-64.36L260.93-64.36Q264.23-65.77 268.21-65.77L268.21-65.77L268.21-65.77Q272.18-65.77 275.19-64.36L275.19-64.36L275.19-64.36Q278.20-62.95 280.14-59.95L280.14-59.95L280.14-59.95Q283.82-54.22 283.82-40.55L283.82-40.55L283.82-33.56L283.82-33.56Q289.64-50.63 295.46-58.01L295.46-58.01L295.46-58.01Q301.38-65.57 308.75-65.57L308.75-65.57L308.75-65.57Q311.66-65.57 313.60-64.07L313.60-64.07L313.60-64.07Q315.54-62.57 316.51-60.33L316.51-60.33L316.51-60.33Q309.04-57.04 301.86-47.53L301.86-47.53L301.86-47.53Q294.69-38.02 290.03-24.73L290.03-24.73L284.31 0L262.68 0ZM341.25 0L330.58 0L342.22-64.02L363.07-64.02L378.20-19.98L386.25-64.02L397.02-63.92L385.19 0L362.97 0L349.01-42.39L341.25 0ZM440.87-14.94L440.87-14.94L440.87-14.94Q442.71-12.61 442.71-8.83L442.71-8.83L442.71-8.83Q442.71-3.59 438.83-0.82L438.83-0.82L438.83-0.82Q434.95 1.94 428.84 1.94L428.84 1.94L428.84 1.94Q425.35 1.94 420.01 1.16L420.01 1.16L420.01 1.16Q409.53-0.48 406.33-0.48L406.33-0.48L406.33-0.48Q403.13-0.48 401.87-0.34L401.87-0.34L401.87-0.34Q400.61-0.19 398.57 0L398.57 0L410.50-64.02L452.31-64.02L452.31-64.02Q452.31-58.10 449.45-55.00L449.45-55.00L449.45-55.00Q446.59-51.90 440.96-51.90L440.96-51.90L440.96-51.90Q435.34-51.90 429.61-54.51L429.61-54.51L426.61-37.54L443.87-37.54L443.87-37.54Q443.87-32.40 441.35-29.54L441.35-29.54L441.35-29.54Q438.83-26.68 434.61-26.68L434.61-26.68L434.61-26.68Q430.39-26.68 427.77-27.64L427.77-27.64L427.77-27.64Q425.15-28.62 424.86-28.91L424.86-28.91L421.37-10.57L421.37-10.57Q423.70-10.28 428.06-10.28L428.06-10.28L428.06-10.28Q435.53-10.28 440.87-14.94ZM454.06-60.14L454.06-60.14L454.06-60.14Q455.42-62.86 458.37-64.36L458.37-64.36L458.37-64.36Q461.33-65.86 465.41-65.86L465.41-65.86L465.41-65.86Q471.81-65.86 475.64-61.26L475.64-61.26L475.64-61.26Q479.47-56.65 479.47-46.56L479.47-46.56L479.47-11.93L501.68-63.92L513.13-63.92L515.75-14.84L515.46-12.03L538.54-63.92L551.83-63.92L520.79 0L500.13 0L498.19-29.49L485.39 0L462.01 0L459.10-46.56L459.10-46.56Q458.81-51.80 457.40-55.24L457.40-55.24L457.40-55.24Q456.00-58.69 454.06-60.14ZM576.86 0L582.49-28.52L582.49-28.52Q579.67-54.80 569.78-60.43L569.78-60.43L569.78-60.43Q571.82-62.95 575.11-64.36L575.11-64.36L575.11-64.36Q578.41-65.77 582.39-65.77L582.39-65.77L582.39-65.77Q586.37-65.77 589.37-64.36L589.37-64.36L589.37-64.36Q592.38-62.95 594.32-59.95L594.32-59.95L594.32-59.95Q598.00-54.22 598.00-40.55L598.00-40.55L598.00-33.56L598.00-33.56Q603.83-50.63 609.64-58.01L609.64-58.01L609.64-58.01Q615.56-65.57 622.93-65.57L622.93-65.57L622.93-65.57Q625.84-65.57 627.78-64.07L627.78-64.07L627.78-64.07Q629.72-62.57 630.69-60.33L630.69-60.33L630.69-60.33Q623.23-57.04 616.05-47.53L616.05-47.53L616.05-47.53Q608.87-38.02 604.21-24.73L604.21-24.73L598.49 0L576.86 0ZM666.88-14.94L666.88-14.94L666.88-14.94Q668.72-12.61 668.72-8.83L668.72-8.83L668.72-8.83Q668.72-3.59 664.84-0.82L664.84-0.82L664.84-0.82Q660.96 1.94 654.85 1.94L654.85 1.94L654.85 1.94Q651.36 1.94 646.02 1.16L646.02 1.16L646.02 1.16Q635.54-0.48 632.34-0.48L632.34-0.48L632.34-0.48Q629.14-0.48 627.88-0.34L627.88-0.34L627.88-0.34Q626.62-0.19 624.58 0L624.58 0L636.51-64.02L678.32-64.02L678.32-64.02Q678.32-58.10 675.46-55.00L675.46-55.00L675.46-55.00Q672.60-51.90 666.97-51.90L666.97-51.90L666.97-51.90Q661.35-51.90 655.62-54.51L655.62-54.51L652.62-37.54L669.88-37.54L669.88-37.54Q669.88-32.40 667.36-29.54L667.36-29.54L667.36-29.54Q664.84-26.68 660.62-26.68L660.62-26.68L660.62-26.68Q656.40-26.68 653.78-27.64L653.78-27.64L653.78-27.64Q651.16-28.62 650.87-28.91L650.87-28.91L647.38-10.57L647.38-10.57Q649.71-10.28 654.07-10.28L654.07-10.28L654.07-10.28Q661.54-10.28 666.88-14.94ZM720.23 1.94L720.23 1.94L720.23 1.94Q707.81 1.94 706.65-15.71L706.65-15.71L689.96-15.71L689.96-15.71Q688.02-11.25 686.66-7.37L686.66-7.37L684.14 0L670.56 0L701.12-64.02L721.97-64.02L726.05-16.88L726.05-16.88Q727.02-6.69 730.90-3.69L730.90-3.69L730.90-3.69Q728.08 1.94 720.23 1.94ZM698.30-35.11L692.97-22.80L706.35-22.80L705.19-47.72L705.19-50.34L698.30-35.11ZM756.41 0L735.65 0L747.48-63.73L747.48-63.73Q757.09-64.80 771.10-64.80L771.10-64.80L771.10-64.80Q785.12-64.80 791.62-60.72L791.62-60.72L791.62-60.72Q798.12-56.65 798.12-48.45L798.12-48.45L798.12-48.45Q798.12-40.26 793.90-35.11L793.90-35.11L793.90-35.11Q789.68-29.97 782.40-28.32L782.40-28.32L782.40-28.32Q784.05-20.27 787.83-13.77L787.83-13.77L787.83-13.77Q791.33-7.66 795.40-5.72L795.40-5.72L795.40-5.72Q793.95-1.65 790.99 0.15L790.99 0.15L790.99 0.15Q788.03 1.94 783.81 1.94L783.81 1.94L783.81 1.94Q779.59 1.94 776.29-0.53L776.29-0.53L776.29-0.53Q772.99-3.01 770.37-7.57L770.37-7.57L770.37-7.57Q764.85-17.46 764.26-33.08L764.26-33.08L764.94-33.08L764.94-33.08Q772.12-33.27 775.71-37.01L775.71-37.01L775.71-37.01Q779.30-40.74 779.30-48.60L779.30-48.60L779.30-48.60Q779.30-58.39 771.05-58.78L771.05-58.78L768.92-58.78L768.92-58.78Q768.05-58.78 767.56-58.69L767.56-58.69L756.41 0ZM819.94-5.72L819.94-5.72L819.94-5.72Q819.94-9.41 822.71-11.40L822.71-11.40L822.71-11.40Q825.47-13.39 829.54-13.39L829.54-13.39L829.54-13.39Q833.62-13.39 836.19-11.40L836.19-11.40L836.19-11.40Q838.76-9.41 838.76-5.72L838.76-5.72L838.76-5.72Q838.76-2.04 835.90 0L835.90 0L835.90 0Q833.04 2.04 828.96 2.04L828.96 2.04L828.96 2.04Q824.89 2.04 822.41 0L822.41 0L822.41 0Q819.94-2.04 819.94-5.72ZM825.18-23.96L825.18-23.96L825.18-23.96Q825.18-24.64 825.37-25.61L825.37-25.61L832.94-64.60L832.94-64.60Q836.53-65.96 840.80-65.96L840.80-65.96L840.80-65.96Q845.06-65.96 847.30-63.24L847.30-63.24L847.30-63.24Q849.53-60.53 849.53-56.50L849.53-56.50L849.53-56.50Q849.53-52.48 847.97-47.97L847.97-47.97L847.97-47.97Q846.42-43.46 844.53-38.90L844.53-38.90L844.53-38.90Q842.64-34.34 841.04-29.63L841.04-29.63L841.04-29.63Q839.44-24.93 839.34-19.98L839.34-19.98L839.34-19.98Q837.11-17.46 833.23-17.46L833.23-17.46L833.23-17.46Q829.35-17.46 827.26-19.25L827.26-19.25L827.26-19.25Q825.18-21.05 825.18-23.96Z" fill="url(#editing-shiny-gradient)"></path></g></g><g filter="url(#editing-shiny2)"><g transform="translate(-175.05503660440445, 108.99999809265137)"><path d="M37.83-7.28L37.83-7.28L37.83-7.28Q37.83-14.07 40.55-27.64L40.55-27.64L26.19-27.64L20.86 0L0.58 0L12.90-64.02L33.37-64.02L27.74-35.41L42.10-35.41L47.43-64.02L67.90-64.02L67.90-64.02Q66.54-56.84 64.80-48.79L64.80-48.79L61.50-32.98L61.50-32.98Q57.81-14.55 57.81-6.50L57.81-6.50L57.81-6.50Q57.81-3.20 58.88-1.36L58.88-1.36L58.88-1.36Q54.03 1.94 48.35 1.94L48.35 1.94L48.35 1.94Q42.68 1.94 40.26-0.78L40.26-0.78L40.26-0.78Q37.83-3.49 37.83-7.28ZM112.81 1.94L112.81 1.94L112.81 1.94Q100.40 1.94 99.23-15.71L99.23-15.71L82.55-15.71L82.55-15.71Q80.61-11.25 79.25-7.37L79.25-7.37L76.73 0L63.15 0L93.70-64.02L114.56-64.02L118.63-16.88L118.63-16.88Q119.60-6.69 123.48-3.69L123.48-3.69L123.48-3.69Q120.67 1.94 112.81 1.94ZM90.89-35.11L85.55-22.80L98.94-22.80L97.78-47.72L97.78-50.34L90.89-35.11ZM167.03-64.70L167.03-64.70L167.03-64.70Q190.80-64.70 190.80-47.92L190.80-47.92L190.80-47.92Q190.80-38.70 184.88-33.17L184.88-33.17L184.88-33.17Q179.06-27.64 168.88-27.64L168.88-27.64L168.88-27.64Q164.12-27.64 160.44-30.36L160.44-30.36L160.44-30.36Q158.69-31.53 157.53-33.08L157.53-33.08L157.53-33.08Q164.61-33.08 168.34-37.39L168.34-37.39L168.34-37.39Q172.08-41.71 172.08-50.15L172.08-50.15L172.08-50.15Q172.08-58.59 163.74-58.59L163.74-58.59L161.41-58.59L161.41-58.59Q160.83-58.59 160.34-58.49L160.34-58.49L149.19 0L128.14 0L140.07-63.54L140.07-63.54Q150.45-64.50 156.46-64.60L156.46-64.60L156.46-64.60Q162.48-64.70 167.03-64.70ZM229.21-64.70L229.21-64.70L229.21-64.70Q252.98-64.70 252.98-47.92L252.98-47.92L252.98-47.92Q252.98-38.70 247.06-33.17L247.06-33.17L247.06-33.17Q241.24-27.64 231.05-27.64L231.05-27.64L231.05-27.64Q226.30-27.64 222.62-30.36L222.62-30.36L222.62-30.36Q220.87-31.53 219.71-33.08L219.71-33.08L219.71-33.08Q226.79-33.08 230.52-37.39L230.52-37.39L230.52-37.39Q234.26-41.71 234.26-50.15L234.26-50.15L234.26-50.15Q234.26-58.59 225.91-58.59L225.91-58.59L223.59-58.59L223.59-58.59Q223.00-58.59 222.52-58.49L222.52-58.49L211.36 0L190.31 0L202.25-63.54L202.25-63.54Q212.62-64.50 218.64-64.60L218.64-64.60L218.64-64.60Q224.65-64.70 229.21-64.70ZM262.68 0L268.30-28.52L268.30-28.52Q265.49-54.80 255.59-60.43L255.59-60.43L255.59-60.43Q257.63-62.95 260.93-64.36L260.93-64.36L260.93-64.36Q264.23-65.77 268.21-65.77L268.21-65.77L268.21-65.77Q272.18-65.77 275.19-64.36L275.19-64.36L275.19-64.36Q278.20-62.95 280.14-59.95L280.14-59.95L280.14-59.95Q283.82-54.22 283.82-40.55L283.82-40.55L283.82-33.56L283.82-33.56Q289.64-50.63 295.46-58.01L295.46-58.01L295.46-58.01Q301.38-65.57 308.75-65.57L308.75-65.57L308.75-65.57Q311.66-65.57 313.60-64.07L313.60-64.07L313.60-64.07Q315.54-62.57 316.51-60.33L316.51-60.33L316.51-60.33Q309.04-57.04 301.86-47.53L301.86-47.53L301.86-47.53Q294.69-38.02 290.03-24.73L290.03-24.73L284.31 0L262.68 0ZM341.25 0L330.58 0L342.22-64.02L363.07-64.02L378.20-19.98L386.25-64.02L397.02-63.92L385.19 0L362.97 0L349.01-42.39L341.25 0ZM440.87-14.94L440.87-14.94L440.87-14.94Q442.71-12.61 442.71-8.83L442.71-8.83L442.71-8.83Q442.71-3.59 438.83-0.82L438.83-0.82L438.83-0.82Q434.95 1.94 428.84 1.94L428.84 1.94L428.84 1.94Q425.35 1.94 420.01 1.16L420.01 1.16L420.01 1.16Q409.53-0.48 406.33-0.48L406.33-0.48L406.33-0.48Q403.13-0.48 401.87-0.34L401.87-0.34L401.87-0.34Q400.61-0.19 398.57 0L398.57 0L410.50-64.02L452.31-64.02L452.31-64.02Q452.31-58.10 449.45-55.00L449.45-55.00L449.45-55.00Q446.59-51.90 440.96-51.90L440.96-51.90L440.96-51.90Q435.34-51.90 429.61-54.51L429.61-54.51L426.61-37.54L443.87-37.54L443.87-37.54Q443.87-32.40 441.35-29.54L441.35-29.54L441.35-29.54Q438.83-26.68 434.61-26.68L434.61-26.68L434.61-26.68Q430.39-26.68 427.77-27.64L427.77-27.64L427.77-27.64Q425.15-28.62 424.86-28.91L424.86-28.91L421.37-10.57L421.37-10.57Q423.70-10.28 428.06-10.28L428.06-10.28L428.06-10.28Q435.53-10.28 440.87-14.94ZM454.06-60.14L454.06-60.14L454.06-60.14Q455.42-62.86 458.37-64.36L458.37-64.36L458.37-64.36Q461.33-65.86 465.41-65.86L465.41-65.86L465.41-65.86Q471.81-65.86 475.64-61.26L475.64-61.26L475.64-61.26Q479.47-56.65 479.47-46.56L479.47-46.56L479.47-11.93L501.68-63.92L513.13-63.92L515.75-14.84L515.46-12.03L538.54-63.92L551.83-63.92L520.79 0L500.13 0L498.19-29.49L485.39 0L462.01 0L459.10-46.56L459.10-46.56Q458.81-51.80 457.40-55.24L457.40-55.24L457.40-55.24Q456.00-58.69 454.06-60.14ZM576.86 0L582.49-28.52L582.49-28.52Q579.67-54.80 569.78-60.43L569.78-60.43L569.78-60.43Q571.82-62.95 575.11-64.36L575.11-64.36L575.11-64.36Q578.41-65.77 582.39-65.77L582.39-65.77L582.39-65.77Q586.37-65.77 589.37-64.36L589.37-64.36L589.37-64.36Q592.38-62.95 594.32-59.95L594.32-59.95L594.32-59.95Q598.00-54.22 598.00-40.55L598.00-40.55L598.00-33.56L598.00-33.56Q603.83-50.63 609.64-58.01L609.64-58.01L609.64-58.01Q615.56-65.57 622.93-65.57L622.93-65.57L622.93-65.57Q625.84-65.57 627.78-64.07L627.78-64.07L627.78-64.07Q629.72-62.57 630.69-60.33L630.69-60.33L630.69-60.33Q623.23-57.04 616.05-47.53L616.05-47.53L616.05-47.53Q608.87-38.02 604.21-24.73L604.21-24.73L598.49 0L576.86 0ZM666.88-14.94L666.88-14.94L666.88-14.94Q668.72-12.61 668.72-8.83L668.72-8.83L668.72-8.83Q668.72-3.59 664.84-0.82L664.84-0.82L664.84-0.82Q660.96 1.94 654.85 1.94L654.85 1.94L654.85 1.94Q651.36 1.94 646.02 1.16L646.02 1.16L646.02 1.16Q635.54-0.48 632.34-0.48L632.34-0.48L632.34-0.48Q629.14-0.48 627.88-0.34L627.88-0.34L627.88-0.34Q626.62-0.19 624.58 0L624.58 0L636.51-64.02L678.32-64.02L678.32-64.02Q678.32-58.10 675.46-55.00L675.46-55.00L675.46-55.00Q672.60-51.90 666.97-51.90L666.97-51.90L666.97-51.90Q661.35-51.90 655.62-54.51L655.62-54.51L652.62-37.54L669.88-37.54L669.88-37.54Q669.88-32.40 667.36-29.54L667.36-29.54L667.36-29.54Q664.84-26.68 660.62-26.68L660.62-26.68L660.62-26.68Q656.40-26.68 653.78-27.64L653.78-27.64L653.78-27.64Q651.16-28.62 650.87-28.91L650.87-28.91L647.38-10.57L647.38-10.57Q649.71-10.28 654.07-10.28L654.07-10.28L654.07-10.28Q661.54-10.28 666.88-14.94ZM720.23 1.94L720.23 1.94L720.23 1.94Q707.81 1.94 706.65-15.71L706.65-15.71L689.96-15.71L689.96-15.71Q688.02-11.25 686.66-7.37L686.66-7.37L684.14 0L670.56 0L701.12-64.02L721.97-64.02L726.05-16.88L726.05-16.88Q727.02-6.69 730.90-3.69L730.90-3.69L730.90-3.69Q728.08 1.94 720.23 1.94ZM698.30-35.11L692.97-22.80L706.35-22.80L705.19-47.72L705.19-50.34L698.30-35.11ZM756.41 0L735.65 0L747.48-63.73L747.48-63.73Q757.09-64.80 771.10-64.80L771.10-64.80L771.10-64.80Q785.12-64.80 791.62-60.72L791.62-60.72L791.62-60.72Q798.12-56.65 798.12-48.45L798.12-48.45L798.12-48.45Q798.12-40.26 793.90-35.11L793.90-35.11L793.90-35.11Q789.68-29.97 782.40-28.32L782.40-28.32L782.40-28.32Q784.05-20.27 787.83-13.77L787.83-13.77L787.83-13.77Q791.33-7.66 795.40-5.72L795.40-5.72L795.40-5.72Q793.95-1.65 790.99 0.15L790.99 0.15L790.99 0.15Q788.03 1.94 783.81 1.94L783.81 1.94L783.81 1.94Q779.59 1.94 776.29-0.53L776.29-0.53L776.29-0.53Q772.99-3.01 770.37-7.57L770.37-7.57L770.37-7.57Q764.85-17.46 764.26-33.08L764.26-33.08L764.94-33.08L764.94-33.08Q772.12-33.27 775.71-37.01L775.71-37.01L775.71-37.01Q779.30-40.74 779.30-48.60L779.30-48.60L779.30-48.60Q779.30-58.39 771.05-58.78L771.05-58.78L768.92-58.78L768.92-58.78Q768.05-58.78 767.56-58.69L767.56-58.69L756.41 0ZM819.94-5.72L819.94-5.72L819.94-5.72Q819.94-9.41 822.71-11.40L822.71-11.40L822.71-11.40Q825.47-13.39 829.54-13.39L829.54-13.39L829.54-13.39Q833.62-13.39 836.19-11.40L836.19-11.40L836.19-11.40Q838.76-9.41 838.76-5.72L838.76-5.72L838.76-5.72Q838.76-2.04 835.90 0L835.90 0L835.90 0Q833.04 2.04 828.96 2.04L828.96 2.04L828.96 2.04Q824.89 2.04 822.41 0L822.41 0L822.41 0Q819.94-2.04 819.94-5.72ZM825.18-23.96L825.18-23.96L825.18-23.96Q825.18-24.64 825.37-25.61L825.37-25.61L832.94-64.60L832.94-64.60Q836.53-65.96 840.80-65.96L840.80-65.96L840.80-65.96Q845.06-65.96 847.30-63.24L847.30-63.24L847.30-63.24Q849.53-60.53 849.53-56.50L849.53-56.50L849.53-56.50Q849.53-52.48 847.97-47.97L847.97-47.97L847.97-47.97Q846.42-43.46 844.53-38.90L844.53-38.90L844.53-38.90Q842.64-34.34 841.04-29.63L841.04-29.63L841.04-29.63Q839.44-24.93 839.34-19.98L839.34-19.98L839.34-19.98Q837.11-17.46 833.23-17.46L833.23-17.46L833.23-17.46Q829.35-17.46 827.26-19.25L827.26-19.25L827.26-19.25Q825.18-21.05 825.18-23.96Z" fill="url(#editing-shiny-gradient2)"></path></g></g><style>text {
  font-size: 64px;
  font-family: Arial Black;
  dominant-baseline: central;
  text-anchor: middle;
}</style></svg>